<svg>

<symbol id="button_text" width="67" height="14" viewBox="0 0 67 14" fill="none" xmlns="http://www.w3.org/2000/svg">
<path d="M0.47675 13V0.039999H3.45275C4.03942 0.039999 4.54608 0.103999 4.97275 0.231999C5.41008 0.36 5.77275 0.557333 6.06075 0.823999C6.34875 1.09067 6.56208 1.432 6.70075 1.848C6.83942 2.25333 6.90875 2.73333 6.90875 3.288C6.90875 3.82133 6.83942 4.28533 6.70075 4.68C6.57275 5.064 6.37008 5.368 6.09275 5.592C5.82608 5.816 5.47942 5.96 5.05275 6.024C5.57542 6.14133 5.99675 6.344 6.31675 6.632C6.63675 6.90933 6.87142 7.272 7.02075 7.72C7.18075 8.15733 7.26075 8.68533 7.26075 9.304C7.26075 9.85867 7.19675 10.3653 7.06875 10.824C6.94075 11.2827 6.73808 11.672 6.46075 11.992C6.19408 12.312 5.84742 12.5627 5.42075 12.744C5.00475 12.9147 4.50875 13 3.93275 13H0.47675ZM2.28475 11.704H3.50075C4.31142 11.704 4.85008 11.5173 5.11675 11.144C5.39408 10.76 5.53275 10.1467 5.53275 9.304C5.53275 8.76 5.45808 8.30667 5.30875 7.944C5.17008 7.57067 4.94075 7.29333 4.62075 7.112C4.31142 6.92 3.89008 6.824 3.35675 6.824H2.28475V11.704ZM2.28475 5.448H3.35675C3.86875 5.448 4.26875 5.37867 4.55675 5.24C4.84475 5.09067 5.04742 4.856 5.16475 4.536C5.28208 4.216 5.34075 3.8 5.34075 3.288C5.34075 2.69067 5.25008 2.25867 5.06875 1.992C4.88742 1.72533 4.60475 1.56 4.22075 1.496C3.83675 1.42133 3.33542 1.384 2.71675 1.384H2.28475V5.448ZM10.0514 13.128C9.68871 13.128 9.40604 13.032 9.20338 12.84C9.00071 12.648 8.85671 12.408 8.77138 12.12C8.69671 11.832 8.65938 11.5387 8.65938 11.24V3.752H10.3714V10.728C10.3714 11.0587 10.4194 11.32 10.5154 11.512C10.6114 11.6933 10.8087 11.784 11.1074 11.784C11.2994 11.784 11.4967 11.7307 11.6994 11.624C11.9127 11.5067 12.1154 11.368 12.3074 11.208V3.752H14.0194V13H12.3074V12.088C12.0087 12.376 11.6674 12.6213 11.2834 12.824C10.91 13.0267 10.4994 13.128 10.0514 13.128ZM18.2343 13.128C17.7543 13.128 17.3649 13.0373 17.0663 12.856C16.7783 12.6747 16.5649 12.4187 16.4263 12.088C16.2983 11.7573 16.2343 11.368 16.2343 10.92V4.888H15.2583V3.752H16.2343V1.048H17.9463V3.752H19.4343V4.888H17.9463V10.808C17.9463 11.1707 18.0049 11.432 18.1223 11.592C18.2396 11.7413 18.4636 11.816 18.7943 11.816C18.8796 11.816 18.9756 11.8107 19.0823 11.8C19.1996 11.7893 19.3116 11.7787 19.4183 11.768V13.032C19.2049 13.064 19.0076 13.0853 18.8263 13.096C18.6449 13.1173 18.4476 13.128 18.2343 13.128ZM23.1561 13.128C22.6761 13.128 22.2868 13.0373 21.9881 12.856C21.7001 12.6747 21.4868 12.4187 21.3481 12.088C21.2201 11.7573 21.1561 11.368 21.1561 10.92V4.888H20.1801V3.752H21.1561V1.048H22.8681V3.752H24.3561V4.888H22.8681V10.808C22.8681 11.1707 22.9268 11.432 23.0441 11.592C23.1615 11.7413 23.3855 11.816 23.7161 11.816C23.8015 11.816 23.8975 11.8107 24.0041 11.8C24.1215 11.7893 24.2335 11.7787 24.3401 11.768V13.032C24.1268 13.064 23.9295 13.0853 23.7481 13.096C23.5668 13.1173 23.3695 13.128 23.1561 13.128ZM28.158 13.128C27.4753 13.128 26.9367 12.9893 26.542 12.712C26.1473 12.4347 25.8647 12.04 25.694 11.528C25.534 11.016 25.454 10.4133 25.454 9.72V7.032C25.454 6.33867 25.534 5.736 25.694 5.224C25.8647 4.712 26.1473 4.31733 26.542 4.04C26.9367 3.76267 27.4753 3.624 28.158 3.624C28.8407 3.624 29.374 3.76267 29.758 4.04C30.1527 4.31733 30.43 4.712 30.59 5.224C30.7607 5.736 30.846 6.33867 30.846 7.032V9.72C30.846 10.4133 30.7607 11.016 30.59 11.528C30.43 12.04 30.1527 12.4347 29.758 12.712C29.374 12.9893 28.8407 13.128 28.158 13.128ZM28.158 11.864C28.4887 11.864 28.718 11.768 28.846 11.576C28.9847 11.384 29.0647 11.1333 29.086 10.824C29.118 10.504 29.134 10.1733 29.134 9.832V6.936C29.134 6.584 29.118 6.25333 29.086 5.944C29.0647 5.63467 28.9847 5.384 28.846 5.192C28.718 4.98933 28.4887 4.888 28.158 4.888C27.8273 4.888 27.5927 4.98933 27.454 5.192C27.3153 5.384 27.23 5.63467 27.198 5.944C27.1767 6.25333 27.166 6.584 27.166 6.936V9.832C27.166 10.1733 27.1767 10.504 27.198 10.824C27.23 11.1333 27.3153 11.384 27.454 11.576C27.5927 11.768 27.8273 11.864 28.158 11.864ZM32.4109 13V3.752H34.1229V4.664C34.4322 4.376 34.7735 4.13067 35.1469 3.928C35.5202 3.72533 35.9309 3.624 36.3789 3.624C36.7522 3.624 37.0349 3.72 37.2269 3.912C37.4295 4.104 37.5682 4.344 37.6429 4.632C37.7282 4.92 37.7709 5.21333 37.7709 5.512V13H36.0589V6.008C36.0589 5.67733 36.0109 5.42133 35.9149 5.24C35.8189 5.05867 35.6215 4.968 35.3229 4.968C35.1309 4.968 34.9282 5.02667 34.7149 5.144C34.5122 5.25067 34.3149 5.384 34.1229 5.544V13H32.4109ZM44.6664 13V1.384H42.4744V0.039999H48.6024V1.384H46.4744V13H44.6664ZM52.0803 13.128C51.3549 13.128 50.7949 12.9893 50.4003 12.712C50.0056 12.424 49.7283 12.008 49.5683 11.464C49.4189 10.9093 49.3443 10.232 49.3443 9.432V7.32C49.3443 6.49867 49.4243 5.816 49.5843 5.272C49.7443 4.728 50.0216 4.31733 50.4163 4.04C50.8216 3.76267 51.3763 3.624 52.0803 3.624C52.8589 3.624 53.4296 3.784 53.7923 4.104C54.1656 4.424 54.4109 4.888 54.5283 5.496C54.6456 6.09333 54.7043 6.81333 54.7043 7.656V8.408H51.0563V10.264C51.0563 10.6373 51.0883 10.9413 51.1523 11.176C51.2269 11.4107 51.3389 11.5867 51.4883 11.704C51.6483 11.8107 51.8509 11.864 52.0963 11.864C52.3523 11.864 52.5443 11.8053 52.6723 11.688C52.8109 11.56 52.9016 11.384 52.9443 11.16C52.9976 10.9253 53.0243 10.6533 53.0243 10.344V9.784H54.6883V10.136C54.6883 11.064 54.4909 11.7947 54.0963 12.328C53.7016 12.8613 53.0296 13.128 52.0803 13.128ZM51.0563 7.48H53.0243V6.648C53.0243 6.264 53.0029 5.944 52.9603 5.688C52.9176 5.42133 52.8269 5.224 52.6883 5.096C52.5603 4.95733 52.3523 4.888 52.0643 4.888C51.7869 4.888 51.5736 4.952 51.4243 5.08C51.2856 5.208 51.1896 5.42667 51.1363 5.736C51.0829 6.03467 51.0563 6.45067 51.0563 6.984V7.48ZM55.5346 13L57.6146 8.136L55.5826 3.752H57.2146L58.5746 6.68L59.7746 3.752H61.4546L59.3426 8.344L61.4866 13H59.8546L58.3986 9.864L57.1506 13H55.5346ZM64.9374 13.128C64.4574 13.128 64.068 13.0373 63.7694 12.856C63.4814 12.6747 63.268 12.4187 63.1294 12.088C63.0014 11.7573 62.9374 11.368 62.9374 10.92V4.888H61.9614V3.752H62.9374V1.048H64.6494V3.752H66.1374V4.888H64.6494V10.808C64.6494 11.1707 64.708 11.432 64.8254 11.592C64.9427 11.7413 65.1667 11.816 65.4974 11.816C65.5827 11.816 65.6787 11.8107 65.7854 11.8C65.9027 11.7893 66.0147 11.7787 66.1214 11.768V13.032C65.908 13.064 65.7107 13.0853 65.5294 13.096C65.348 13.1173 65.1507 13.128 64.9374 13.128Z" fill="white"/>
</symbol>

<symbol id="button_text_red" width="67" height="14" viewBox="0 0 67 14" fill="none" xmlns="http://www.w3.org/2000/svg">
<path d="M0.47675 13V0.039999H3.45275C4.03942 0.039999 4.54608 0.103999 4.97275 0.231999C5.41008 0.36 5.77275 0.557333 6.06075 0.823999C6.34875 1.09067 6.56208 1.432 6.70075 1.848C6.83942 2.25333 6.90875 2.73333 6.90875 3.288C6.90875 3.82133 6.83942 4.28533 6.70075 4.68C6.57275 5.064 6.37008 5.368 6.09275 5.592C5.82608 5.816 5.47942 5.96 5.05275 6.024C5.57542 6.14133 5.99675 6.344 6.31675 6.632C6.63675 6.90933 6.87142 7.272 7.02075 7.72C7.18075 8.15733 7.26075 8.68533 7.26075 9.304C7.26075 9.85867 7.19675 10.3653 7.06875 10.824C6.94075 11.2827 6.73808 11.672 6.46075 11.992C6.19408 12.312 5.84742 12.5627 5.42075 12.744C5.00475 12.9147 4.50875 13 3.93275 13H0.47675ZM2.28475 11.704H3.50075C4.31142 11.704 4.85008 11.5173 5.11675 11.144C5.39408 10.76 5.53275 10.1467 5.53275 9.304C5.53275 8.76 5.45808 8.30667 5.30875 7.944C5.17008 7.57067 4.94075 7.29333 4.62075 7.112C4.31142 6.92 3.89008 6.824 3.35675 6.824H2.28475V11.704ZM2.28475 5.448H3.35675C3.86875 5.448 4.26875 5.37867 4.55675 5.24C4.84475 5.09067 5.04742 4.856 5.16475 4.536C5.28208 4.216 5.34075 3.8 5.34075 3.288C5.34075 2.69067 5.25008 2.25867 5.06875 1.992C4.88742 1.72533 4.60475 1.56 4.22075 1.496C3.83675 1.42133 3.33542 1.384 2.71675 1.384H2.28475V5.448ZM10.0514 13.128C9.68871 13.128 9.40604 13.032 9.20338 12.84C9.00071 12.648 8.85671 12.408 8.77138 12.12C8.69671 11.832 8.65938 11.5387 8.65938 11.24V3.752H10.3714V10.728C10.3714 11.0587 10.4194 11.32 10.5154 11.512C10.6114 11.6933 10.8087 11.784 11.1074 11.784C11.2994 11.784 11.4967 11.7307 11.6994 11.624C11.9127 11.5067 12.1154 11.368 12.3074 11.208V3.752H14.0194V13H12.3074V12.088C12.0087 12.376 11.6674 12.6213 11.2834 12.824C10.91 13.0267 10.4994 13.128 10.0514 13.128ZM18.2343 13.128C17.7543 13.128 17.3649 13.0373 17.0663 12.856C16.7783 12.6747 16.5649 12.4187 16.4263 12.088C16.2983 11.7573 16.2343 11.368 16.2343 10.92V4.888H15.2583V3.752H16.2343V1.048H17.9463V3.752H19.4343V4.888H17.9463V10.808C17.9463 11.1707 18.0049 11.432 18.1223 11.592C18.2396 11.7413 18.4636 11.816 18.7943 11.816C18.8796 11.816 18.9756 11.8107 19.0823 11.8C19.1996 11.7893 19.3116 11.7787 19.4183 11.768V13.032C19.2049 13.064 19.0076 13.0853 18.8263 13.096C18.6449 13.1173 18.4476 13.128 18.2343 13.128ZM23.1561 13.128C22.6761 13.128 22.2868 13.0373 21.9881 12.856C21.7001 12.6747 21.4868 12.4187 21.3481 12.088C21.2201 11.7573 21.1561 11.368 21.1561 10.92V4.888H20.1801V3.752H21.1561V1.048H22.8681V3.752H24.3561V4.888H22.8681V10.808C22.8681 11.1707 22.9268 11.432 23.0441 11.592C23.1615 11.7413 23.3855 11.816 23.7161 11.816C23.8015 11.816 23.8975 11.8107 24.0041 11.8C24.1215 11.7893 24.2335 11.7787 24.3401 11.768V13.032C24.1268 13.064 23.9295 13.0853 23.7481 13.096C23.5668 13.1173 23.3695 13.128 23.1561 13.128ZM28.158 13.128C27.4753 13.128 26.9367 12.9893 26.542 12.712C26.1473 12.4347 25.8647 12.04 25.694 11.528C25.534 11.016 25.454 10.4133 25.454 9.72V7.032C25.454 6.33867 25.534 5.736 25.694 5.224C25.8647 4.712 26.1473 4.31733 26.542 4.04C26.9367 3.76267 27.4753 3.624 28.158 3.624C28.8407 3.624 29.374 3.76267 29.758 4.04C30.1527 4.31733 30.43 4.712 30.59 5.224C30.7607 5.736 30.846 6.33867 30.846 7.032V9.72C30.846 10.4133 30.7607 11.016 30.59 11.528C30.43 12.04 30.1527 12.4347 29.758 12.712C29.374 12.9893 28.8407 13.128 28.158 13.128ZM28.158 11.864C28.4887 11.864 28.718 11.768 28.846 11.576C28.9847 11.384 29.0647 11.1333 29.086 10.824C29.118 10.504 29.134 10.1733 29.134 9.832V6.936C29.134 6.584 29.118 6.25333 29.086 5.944C29.0647 5.63467 28.9847 5.384 28.846 5.192C28.718 4.98933 28.4887 4.888 28.158 4.888C27.8273 4.888 27.5927 4.98933 27.454 5.192C27.3153 5.384 27.23 5.63467 27.198 5.944C27.1767 6.25333 27.166 6.584 27.166 6.936V9.832C27.166 10.1733 27.1767 10.504 27.198 10.824C27.23 11.1333 27.3153 11.384 27.454 11.576C27.5927 11.768 27.8273 11.864 28.158 11.864ZM32.4109 13V3.752H34.1229V4.664C34.4322 4.376 34.7735 4.13067 35.1469 3.928C35.5202 3.72533 35.9309 3.624 36.3789 3.624C36.7522 3.624 37.0349 3.72 37.2269 3.912C37.4295 4.104 37.5682 4.344 37.6429 4.632C37.7282 4.92 37.7709 5.21333 37.7709 5.512V13H36.0589V6.008C36.0589 5.67733 36.0109 5.42133 35.9149 5.24C35.8189 5.05867 35.6215 4.968 35.3229 4.968C35.1309 4.968 34.9282 5.02667 34.7149 5.144C34.5122 5.25067 34.3149 5.384 34.1229 5.544V13H32.4109ZM44.6664 13V1.384H42.4744V0.039999H48.6024V1.384H46.4744V13H44.6664ZM52.0803 13.128C51.3549 13.128 50.7949 12.9893 50.4003 12.712C50.0056 12.424 49.7283 12.008 49.5683 11.464C49.4189 10.9093 49.3443 10.232 49.3443 9.432V7.32C49.3443 6.49867 49.4243 5.816 49.5843 5.272C49.7443 4.728 50.0216 4.31733 50.4163 4.04C50.8216 3.76267 51.3763 3.624 52.0803 3.624C52.8589 3.624 53.4296 3.784 53.7923 4.104C54.1656 4.424 54.4109 4.888 54.5283 5.496C54.6456 6.09333 54.7043 6.81333 54.7043 7.656V8.408H51.0563V10.264C51.0563 10.6373 51.0883 10.9413 51.1523 11.176C51.2269 11.4107 51.3389 11.5867 51.4883 11.704C51.6483 11.8107 51.8509 11.864 52.0963 11.864C52.3523 11.864 52.5443 11.8053 52.6723 11.688C52.8109 11.56 52.9016 11.384 52.9443 11.16C52.9976 10.9253 53.0243 10.6533 53.0243 10.344V9.784H54.6883V10.136C54.6883 11.064 54.4909 11.7947 54.0963 12.328C53.7016 12.8613 53.0296 13.128 52.0803 13.128ZM51.0563 7.48H53.0243V6.648C53.0243 6.264 53.0029 5.944 52.9603 5.688C52.9176 5.42133 52.8269 5.224 52.6883 5.096C52.5603 4.95733 52.3523 4.888 52.0643 4.888C51.7869 4.888 51.5736 4.952 51.4243 5.08C51.2856 5.208 51.1896 5.42667 51.1363 5.736C51.0829 6.03467 51.0563 6.45067 51.0563 6.984V7.48ZM55.5346 13L57.6146 8.136L55.5826 3.752H57.2146L58.5746 6.68L59.7746 3.752H61.4546L59.3426 8.344L61.4866 13H59.8546L58.3986 9.864L57.1506 13H55.5346ZM64.9374 13.128C64.4574 13.128 64.068 13.0373 63.7694 12.856C63.4814 12.6747 63.268 12.4187 63.1294 12.088C63.0014 11.7573 62.9374 11.368 62.9374 10.92V4.888H61.9614V3.752H62.9374V1.048H64.6494V3.752H66.1374V4.888H64.6494V10.808C64.6494 11.1707 64.708 11.432 64.8254 11.592C64.9427 11.7413 65.1667 11.816 65.4974 11.816C65.5827 11.816 65.6787 11.8107 65.7854 11.8C65.9027 11.7893 66.0147 11.7787 66.1214 11.768V13.032C65.908 13.064 65.7107 13.0853 65.5294 13.096C65.348 13.1173 65.1507 13.128 64.9374 13.128Z" fill="white"/>
</symbol>

<symbol id="call_the_action" width="79" height="15" viewBox="0 0 79 15" fill="none" xmlns="http://www.w3.org/2000/svg">
<path d="M3.506 14.144C2.58867 14.144 1.874 13.952 1.362 13.568C0.860667 13.184 0.508667 12.6667 0.306 12.016C0.114 11.3653 0.018 10.64 0.018 9.84V5.264C0.018 4.38933 0.114 3.62667 0.306 2.976C0.508667 2.32533 0.860667 1.824 1.362 1.472C1.874 1.10933 2.58867 0.927999 3.506 0.927999C4.31667 0.927999 4.95667 1.07733 5.426 1.376C5.906 1.67467 6.24733 2.10133 6.45 2.656C6.66333 3.21067 6.77 3.87733 6.77 4.656V5.68H5.058V4.768C5.058 4.288 5.03133 3.86667 4.978 3.504C4.93533 3.13067 4.80733 2.84267 4.594 2.64C4.38067 2.43733 4.02333 2.336 3.522 2.336C3.01 2.336 2.63667 2.448 2.402 2.672C2.16733 2.88533 2.01267 3.19467 1.938 3.6C1.874 3.99467 1.842 4.45867 1.842 4.992V10.128C1.842 10.7787 1.89533 11.296 2.002 11.68C2.10867 12.0533 2.28467 12.32 2.53 12.48C2.77533 12.64 3.106 12.72 3.522 12.72C4.01267 12.72 4.36467 12.6133 4.578 12.4C4.79133 12.176 4.92467 11.872 4.978 11.488C5.03133 11.104 5.058 10.656 5.058 10.144V9.184H6.77V10.144C6.77 10.9333 6.674 11.632 6.482 12.24C6.29 12.8373 5.95933 13.3067 5.49 13.648C5.02067 13.9787 4.35933 14.144 3.506 14.144ZM10.0124 14.128C9.64971 14.128 9.32971 14.0267 9.05238 13.824C8.77504 13.6107 8.55638 13.344 8.39638 13.024C8.23638 12.6933 8.15638 12.3467 8.15638 11.984C8.15638 11.408 8.25238 10.9227 8.44438 10.528C8.63638 10.1333 8.89771 9.80267 9.22838 9.536C9.56971 9.25867 9.95904 9.01867 10.3964 8.816C10.8444 8.61333 11.3137 8.416 11.8044 8.224V7.568C11.8044 7.19467 11.783 6.88533 11.7404 6.64C11.6977 6.39467 11.607 6.21333 11.4684 6.096C11.3404 5.968 11.143 5.904 10.8764 5.904C10.6417 5.904 10.4497 5.95733 10.3004 6.064C10.1617 6.17067 10.0604 6.32533 9.99638 6.528C9.93238 6.72 9.90038 6.94933 9.90038 7.216V7.68L8.20438 7.616C8.22571 6.592 8.46038 5.84 8.90838 5.36C9.35638 4.86933 10.0497 4.624 10.9884 4.624C11.9057 4.624 12.5564 4.87467 12.9404 5.376C13.3244 5.87733 13.5164 6.60267 13.5164 7.552V11.776C13.5164 12.064 13.5217 12.3413 13.5324 12.608C13.5537 12.8747 13.575 13.1253 13.5964 13.36C13.6284 13.584 13.655 13.7973 13.6764 14H12.1084C12.0764 13.8293 12.0337 13.616 11.9804 13.36C11.9377 13.0933 11.9057 12.8533 11.8844 12.64C11.7777 13.0027 11.5697 13.344 11.2604 13.664C10.9617 13.9733 10.5457 14.128 10.0124 14.128ZM10.6844 12.656C10.855 12.656 11.015 12.608 11.1644 12.512C11.3137 12.416 11.447 12.3093 11.5644 12.192C11.6817 12.064 11.7617 11.9627 11.8044 11.888V9.264C11.5377 9.41333 11.287 9.56267 11.0524 9.712C10.8177 9.86133 10.6097 10.0213 10.4284 10.192C10.2577 10.352 10.119 10.5387 10.0124 10.752C9.91638 10.9547 9.86838 11.1893 9.86838 11.456C9.86838 11.8293 9.93771 12.1227 10.0764 12.336C10.215 12.5493 10.4177 12.656 10.6844 12.656ZM15.3209 14V1.04H17.0329V14H15.3209ZM18.9771 14V1.04H20.6891V14H18.9771ZM27.6976 14V2.384H25.5056V1.04H31.6336V2.384H29.5056V14H27.6976ZM35.0955 14.128C34.4128 14.128 33.8742 13.9893 33.4795 13.712C33.0848 13.4347 32.8022 13.04 32.6315 12.528C32.4715 12.016 32.3915 11.4133 32.3915 10.72V8.032C32.3915 7.33867 32.4715 6.736 32.6315 6.224C32.8022 5.712 33.0848 5.31733 33.4795 5.04C33.8742 4.76267 34.4128 4.624 35.0955 4.624C35.7782 4.624 36.3115 4.76267 36.6955 5.04C37.0902 5.31733 37.3675 5.712 37.5275 6.224C37.6982 6.736 37.7835 7.33867 37.7835 8.032V10.72C37.7835 11.4133 37.6982 12.016 37.5275 12.528C37.3675 13.04 37.0902 13.4347 36.6955 13.712C36.3115 13.9893 35.7782 14.128 35.0955 14.128ZM35.0955 12.864C35.4262 12.864 35.6555 12.768 35.7835 12.576C35.9222 12.384 36.0022 12.1333 36.0235 11.824C36.0555 11.504 36.0715 11.1733 36.0715 10.832V7.936C36.0715 7.584 36.0555 7.25333 36.0235 6.944C36.0022 6.63467 35.9222 6.384 35.7835 6.192C35.6555 5.98933 35.4262 5.888 35.0955 5.888C34.7648 5.888 34.5302 5.98933 34.3915 6.192C34.2528 6.384 34.1675 6.63467 34.1355 6.944C34.1142 7.25333 34.1035 7.584 34.1035 7.936V10.832C34.1035 11.1733 34.1142 11.504 34.1355 11.824C34.1675 12.1333 34.2528 12.384 34.3915 12.576C34.5302 12.768 34.7648 12.864 35.0955 12.864ZM42.4446 14L45.1966 1.04H46.9406L49.7086 14H47.9966L47.4046 10.736H44.7646L44.1406 14H42.4446ZM45.0046 9.44H47.1646L46.0766 3.6L45.0046 9.44ZM53.4076 14.128C52.6503 14.128 52.0743 13.9787 51.6796 13.68C51.2956 13.3707 51.0343 12.9387 50.8956 12.384C50.7676 11.8293 50.7036 11.184 50.7036 10.448V8.32C50.7036 7.54133 50.773 6.88 50.9116 6.336C51.0503 5.78133 51.3116 5.36 51.6956 5.072C52.0903 4.77333 52.661 4.624 53.4076 4.624C54.0796 4.624 54.597 4.736 54.9596 4.96C55.333 5.17333 55.589 5.49867 55.7276 5.936C55.8663 6.36267 55.9356 6.896 55.9356 7.536V8.08H54.3836V7.52C54.3836 7.11467 54.357 6.79467 54.3036 6.56C54.2503 6.32533 54.1543 6.15467 54.0156 6.048C53.877 5.94133 53.6796 5.888 53.4236 5.888C53.1463 5.888 52.933 5.952 52.7836 6.08C52.6343 6.208 52.533 6.42667 52.4796 6.736C52.437 7.03467 52.4156 7.44533 52.4156 7.968V10.88C52.4156 11.6693 52.4903 12.1973 52.6396 12.464C52.789 12.7307 53.0556 12.864 53.4396 12.864C53.7276 12.864 53.9356 12.8 54.0636 12.672C54.2023 12.5333 54.2876 12.3413 54.3196 12.096C54.3623 11.8507 54.3836 11.5733 54.3836 11.264V10.512H55.9356V11.152C55.9356 11.7707 55.861 12.304 55.7116 12.752C55.573 13.2 55.317 13.5413 54.9436 13.776C54.581 14.0107 54.069 14.128 53.4076 14.128ZM59.9218 14.128C59.4418 14.128 59.0524 14.0373 58.7538 13.856C58.4658 13.6747 58.2524 13.4187 58.1138 13.088C57.9858 12.7573 57.9218 12.368 57.9218 11.92V5.888H56.9458V4.752H57.9218V2.048H59.6338V4.752H61.1218V5.888H59.6338V11.808C59.6338 12.1707 59.6924 12.432 59.8098 12.592C59.9271 12.7413 60.1511 12.816 60.4818 12.816C60.5671 12.816 60.6631 12.8107 60.7698 12.8C60.8871 12.7893 60.9991 12.7787 61.1058 12.768V14.032C60.8924 14.064 60.6951 14.0853 60.5138 14.096C60.3324 14.1173 60.1351 14.128 59.9218 14.128ZM62.4916 14V4.752H64.2036V14H62.4916ZM62.4916 3.376V1.584H64.2036V3.376H62.4916ZM68.5799 14.128C67.8972 14.128 67.3585 13.9893 66.9639 13.712C66.5692 13.4347 66.2865 13.04 66.1159 12.528C65.9559 12.016 65.8759 11.4133 65.8759 10.72V8.032C65.8759 7.33867 65.9559 6.736 66.1159 6.224C66.2865 5.712 66.5692 5.31733 66.9639 5.04C67.3585 4.76267 67.8972 4.624 68.5799 4.624C69.2625 4.624 69.7959 4.76267 70.1799 5.04C70.5745 5.31733 70.8519 5.712 71.0119 6.224C71.1825 6.736 71.2679 7.33867 71.2679 8.032V10.72C71.2679 11.4133 71.1825 12.016 71.0119 12.528C70.8519 13.04 70.5745 13.4347 70.1799 13.712C69.7959 13.9893 69.2625 14.128 68.5799 14.128ZM68.5799 12.864C68.9105 12.864 69.1399 12.768 69.2679 12.576C69.4065 12.384 69.4865 12.1333 69.5079 11.824C69.5399 11.504 69.5559 11.1733 69.5559 10.832V7.936C69.5559 7.584 69.5399 7.25333 69.5079 6.944C69.4865 6.63467 69.4065 6.384 69.2679 6.192C69.1399 5.98933 68.9105 5.888 68.5799 5.888C68.2492 5.888 68.0145 5.98933 67.8759 6.192C67.7372 6.384 67.6519 6.63467 67.6199 6.944C67.5985 7.25333 67.5879 7.584 67.5879 7.936V10.832C67.5879 11.1733 67.5985 11.504 67.6199 11.824C67.6519 12.1333 67.7372 12.384 67.8759 12.576C68.0145 12.768 68.2492 12.864 68.5799 12.864ZM72.8328 14V4.752H74.5448V5.664C74.8541 5.376 75.1954 5.13067 75.5688 4.928C75.9421 4.72533 76.3528 4.624 76.8008 4.624C77.1741 4.624 77.4568 4.72 77.6488 4.912C77.8514 5.104 77.9901 5.344 78.0648 5.632C78.1501 5.92 78.1928 6.21333 78.1928 6.512V14H76.4808V7.008C76.4808 6.67733 76.4328 6.42133 76.3368 6.24C76.2407 6.05867 76.0434 5.968 75.7448 5.968C75.5528 5.968 75.3501 6.02667 75.1368 6.144C74.9341 6.25067 74.7368 6.384 74.5448 6.544V14H72.8328Z" fill="white"/>
</symbol>

<symbol id="submit_in_bottom" width="583" height="45" viewBox="0 0 583 45" fill="none" xmlns="http://www.w3.org/2000/svg">
<path d="M0 4C0 1.79086 1.79086 0 4 0H579C581.209 0 583 1.79086 583 4V41C583 43.2091 581.209 45 579 45H4.00002C1.79088 45 0 43.2091 0 41V4Z" fill="#CF404D"/>
</symbol>

<symbol id="facebook" width="16" height="16" viewBox="0 0 16 16" fill="none" xmlns="http://www.w3.org/2000/svg">
<path d="M13.7333 0.44165H1.83333C0.869998 0.44165 0.133331 1.17832 0.133331 2.14165V14.0417C0.133331 15.005 0.869998 15.7417 1.83333 15.7417H7.78333V9.79165H6.08333V7.69498H7.78333V5.93832C7.78333 4.12498 8.80333 2.82165 10.9567 2.82165H12.4867V5.03165H11.4667C10.6167 5.03165 10.2767 5.65498 10.2767 6.27832V7.69498H12.4867L12.0333 9.79165H10.3333V15.7417H13.7333C14.6967 15.7417 15.4333 15.005 15.4333 14.0417V2.14165C15.4333 1.17832 14.6967 0.44165 13.7333 0.44165Z" fill="white"/>
</symbol>


<symbol id="twitter" width="17" height="13" viewBox="0 0 17 13" fill="none" xmlns="http://www.w3.org/2000/svg">
<path d="M14.8467 3.31494C14.8467 3.42827 14.8467 3.59827 14.8467 3.7116C14.8467 7.9616 11.6167 12.8349 5.72334 12.8349C3.91 12.8349 2.21 12.3249 0.793335 11.4183C1.02 11.4183 1.30334 11.4749 1.58667 11.4749C3.11667 11.4749 4.47667 10.9649 5.55334 10.1149C4.13667 10.1149 2.94667 9.1516 2.55 7.90494C2.72 7.9616 2.94667 7.9616 3.17334 7.9616C3.45667 7.9616 3.74 7.90493 4.02334 7.84827C2.55 7.50827 1.41667 6.20494 1.41667 4.67493C1.41667 4.67493 1.41667 4.67493 1.41667 4.61827C1.87 4.84493 2.32334 5.01494 2.89 5.01494C2.04 4.44827 1.47333 3.48494 1.47333 2.3516C1.47333 1.78493 1.64334 1.21827 1.92667 0.764935C3.51334 2.6916 5.89334 3.99493 8.55667 4.10827C8.5 3.8816 8.5 3.65493 8.5 3.3716C8.5 1.61493 9.91667 0.141602 11.73 0.141602C12.6367 0.141602 13.4867 0.538268 14.0533 1.1616C14.79 0.991602 15.47 0.764935 16.0933 0.368268C15.8667 1.10493 15.3567 1.72827 14.6767 2.12493C15.2433 2.06827 15.8667 1.89827 16.4333 1.6716C15.98 2.29493 15.47 2.8616 14.8467 3.31494Z" fill="white"/>
</symbol>


<symbol id="basketball" width="17" height="16" viewBox="0 0 17 16" fill="none" xmlns="http://www.w3.org/2000/svg">
<path d="M15.4133 5.20165C14.79 3.84165 13.8833 2.65165 12.6367 1.80165C11.39 0.95165 9.91667 0.44165 8.33 0.44165C7.19667 0.44165 6.17667 0.724984 5.38333 1.00832C4.02333 1.57498 2.83333 2.53832 1.98333 3.84165C1.13333 5.14498 0.566666 6.56165 0.566666 8.20498C0.566666 9.28165 0.793332 10.3583 1.19 11.1517C1.81333 12.5117 2.72 13.7016 3.96667 14.5517C5.21333 15.4017 6.68667 15.9116 8.33 15.9116C9.40667 15.9116 10.4833 15.6283 11.2767 15.345C12.6367 14.7217 13.8267 13.815 14.6767 12.5117C15.5267 11.2083 16.0367 9.79165 16.0367 8.20498C16.0367 7.07165 15.8667 6.05165 15.4133 5.20165ZM12.0133 12.8517C11.8433 12.0583 11.56 10.8117 10.9933 9.16832C11.22 9.16832 11.6167 9.05498 11.8433 9.05498C12.5233 9.05498 13.09 9.16832 13.6 9.22498C13.77 9.22498 13.94 9.33832 14.11 9.33832C13.94 10.075 13.6567 10.6983 13.26 11.3783C12.9767 11.8883 12.58 12.455 12.0133 12.8517ZM14.28 7.69498C14.11 7.69498 13.94 7.58165 13.6567 7.58165C13.1467 7.52498 12.4667 7.41165 11.73 7.41165C11.2767 7.41165 10.88 7.41165 10.4833 7.52498V7.41165C10.37 7.24165 10.3133 6.95832 10.2 6.84498C11.3333 6.33498 12.1833 5.71165 12.6933 5.31498C12.92 5.03165 13.1467 4.86165 13.3167 4.74832C13.8267 5.54165 14.1667 6.56165 14.28 7.69498ZM11.39 4.12498C10.9367 4.40832 10.2567 4.97498 9.35 5.25832C8.84 4.35165 8.33 3.55832 7.93333 2.99165C7.70667 2.70832 7.53667 2.48165 7.36667 2.25498C7.59333 2.14165 7.99 2.14165 8.33 2.14165C9.74667 2.14165 11.05 2.65165 12.07 3.38832C11.9 3.67165 11.73 3.84165 11.39 4.12498ZM5.49667 2.93498C5.83667 3.44498 6.63 4.57832 7.48 5.88165C5.32667 6.39165 3.4 6.50498 2.55 6.56165C2.83333 5.76832 3.17333 5.14498 3.68333 4.52165C4.13667 3.84165 4.81667 3.27498 5.49667 2.93498ZM4.64667 8.20498C5.78 8.09165 7.02667 7.86498 8.33 7.52498C8.38667 7.69498 8.5 7.86498 8.55667 8.03498C7.70667 8.31832 6.97 8.71498 6.34667 9.16832C5.32667 9.84832 4.64667 10.585 4.13667 11.3217C3.96667 11.4917 3.79667 11.775 3.62667 11.945C2.89 10.9816 2.43667 9.73498 2.38 8.43165C2.77667 8.37498 3.62667 8.26165 4.64667 8.20498ZM5.95 11.775C6.63 11.095 7.76333 10.245 9.29333 9.62165C9.97333 11.4917 10.3133 13.0217 10.4833 13.7583C9.80333 14.0417 9.12333 14.0983 8.33 14.0983C7.08333 14.0983 5.83667 13.645 4.81667 12.965C4.98667 12.795 5.32667 12.285 5.95 11.775Z" fill="white"/>
</symbol>


<symbol id="Be_button" width="17" height="12" viewBox="0 0 17 12" fill="none" xmlns="http://www.w3.org/2000/svg">
<path d="M6.85667 5.75159C6.85667 5.75159 8.44333 5.63825 8.44333 3.65492C8.5 1.67159 7.14 0.708252 5.49667 0.708252H0V11.7016H5.49667C5.49667 11.7016 8.84 11.8149 8.84 8.47159C8.84 8.47159 9.01 5.75159 6.85667 5.75159ZM2.43667 2.63492H5.49667C5.49667 2.63492 6.23333 2.63492 6.23333 3.76825C6.23333 4.90159 5.78 5.07159 5.27 5.07159H2.43667V2.63492ZM5.32667 9.71825H2.43667V6.77158H5.49667C5.49667 6.77158 6.63 6.77158 6.63 8.30159C6.57333 9.60492 5.78 9.71825 5.32667 9.71825ZM13.3167 3.48492C9.23667 3.48492 9.23667 7.73492 9.23667 7.73492C9.23667 7.73492 8.95333 11.9283 13.3167 11.9283C13.3167 11.9283 16.9433 12.1549 16.9433 8.98159H15.0733C15.0733 8.98159 15.13 10.1716 13.3733 10.1716C13.3733 10.1716 11.5033 10.2849 11.5033 8.24492H16.9433C16.9433 8.24492 17.5667 3.48492 13.3167 3.48492ZM14.96 6.82825H11.5033C11.5033 6.82825 11.73 5.12825 13.3733 5.12825C15.0167 5.12825 14.96 6.82825 14.96 6.82825ZM15.4133 1.33159H11.05V2.69159H15.4133V1.33159Z" fill="white"/>
</symbol>


<symbol id="wector_button" width="17" height="11" viewBox="0 0 17 11" fill="none" xmlns="http://www.w3.org/2000/svg">
<path d="M12.41 3.33495C12.41 3.33495 11.1633 7.30162 11.05 7.58495C10.9933 7.24495 10.0867 0.161621 10.0867 0.161621C7.93333 0.161621 6.79999 1.69162 6.17666 3.27829C6.17666 3.27829 4.64666 7.24495 4.53333 7.58495C4.53333 7.30162 4.30666 3.33495 4.30666 3.33495C4.19333 1.35162 2.38 0.161621 0.906662 0.161621L2.66333 10.8716C4.93 10.8716 6.11999 9.34162 6.74333 7.75496C6.74333 7.75496 8.10333 4.24162 8.15999 4.12829C8.15999 4.29829 9.12333 10.9283 9.12333 10.9283C11.39 10.9283 12.58 9.51162 13.26 7.92495L16.4333 0.161621C14.2233 0.161621 13.0333 1.69162 12.41 3.33495Z" fill="white"/>
</symbol>


<symbol id="instagram" width="16" height="16" viewBox="0 0 16 16" fill="none" xmlns="http://www.w3.org/2000/svg">
<path d="M14.1667 0.00830078H2.26667C1.30333 0.00830078 0.566666 0.744967 0.566666 1.7083V13.6083C0.566666 14.5716 1.30333 15.3083 2.26667 15.3083H14.1667C15.13 15.3083 15.8667 14.5716 15.8667 13.6083V1.7083C15.8667 0.744967 15.13 0.00830078 14.1667 0.00830078ZM8.21667 12.3616C10.8233 12.3616 12.92 10.265 12.92 7.6583C12.92 7.37497 12.8633 7.09163 12.8067 6.8083H14.1667V12.9283C14.1667 13.2683 13.8833 13.495 13.6 13.495H2.83333C2.49333 13.495 2.26667 13.2116 2.26667 12.9283V6.8083H3.57C3.51333 7.09163 3.45667 7.37497 3.45667 7.6583C3.51333 10.265 5.61 12.3616 8.21667 12.3616ZM5.27 7.6583C5.27 6.01497 6.57333 4.71163 8.21667 4.71163C9.86 4.71163 11.1633 6.01497 11.1633 7.6583C11.1633 9.30163 9.86 10.605 8.21667 10.605C6.57333 10.605 5.27 9.24497 5.27 7.6583ZM13.6 4.2583H12.24C11.9 4.2583 11.6733 3.97497 11.6733 3.69163V2.27497C11.6733 1.93497 11.9567 1.7083 12.24 1.7083H13.6C13.94 1.7083 14.1667 1.99163 14.1667 2.27497V3.63497C14.1667 3.97497 13.8833 4.2583 13.6 4.2583Z" fill="white"/>
</symbol>


<symbol id="email" width="17" height="14" viewBox="0 0 17 14" fill="none" xmlns="http://www.w3.org/2000/svg">
<path fill-rule="evenodd" clip-rule="evenodd" d="M16.3767 0.934935C16.2633 0.481602 15.81 0.141602 15.3 0.141602H1.7C1.19 0.141602 0.736666 0.481602 0.623332 0.934935L8.5 8.07493L16.3767 0.934935ZM12.58 6.65827L16.4333 10.1149V3.2016L12.58 6.65827ZM8.5 10.3416L5.66667 7.7916L0.623332 12.3249C0.736666 12.8349 1.19 13.1749 1.7 13.1749H15.3C15.81 13.1749 16.2633 12.8349 16.3767 12.3816L11.3333 7.84827L8.5 10.3416ZM0.566666 3.2016V10.1149L4.42 6.65827L0.566666 3.2016Z" fill="white"/>
</symbol>


</svg>